<svg version="1.1" id="Layer_1" xmlns="http://www.w3.org/2000/svg" xmlns:xlink="http://www.w3.org/1999/xlink" x="0px" y="0px"
	 width="100%" viewBox="0 0 539 454" enable-background="new 0 0 539 454" xml:space="preserve">
<path fill="#FFFFFF" opacity="1.000000" stroke="none" 
	d="
M271.000000,455.000000 
	C181.040543,455.000000 91.081078,455.000000 1.060808,455.000000 
	C1.060808,303.775391 1.060808,152.550751 1.060808,1.000000 
	C82.021141,1.000000 163.042725,1.000000 244.247955,1.301246 
	C233.186340,2.447491 221.857162,2.695900 210.713425,4.262998 
	C188.249924,7.421946 165.826294,10.957372 143.496597,14.954168 
	C104.541489,21.926750 66.582588,32.807930 29.011612,45.117569 
	C24.959661,46.445145 23.137865,48.829090 23.016884,53.064335 
	C22.241743,80.200333 23.101229,107.229370 28.213793,133.975876 
	C36.066589,175.057983 49.761337,214.064789 69.401138,251.038315 
	C96.332100,301.738068 132.316422,345.123291 174.781860,383.461639 
	C198.540558,404.911316 224.034210,424.005554 250.777481,441.508972 
	C257.557343,445.946381 264.261200,450.499878 271.000000,455.000000 
z"/>
<path fill="#FFFFFF" opacity="1.000000" stroke="none" 
	d="
M302.000000,0.999999 
	C381.297272,1.000000 460.594574,1.000000 539.945923,1.000000 
	C539.945923,152.228470 539.945923,303.456970 539.945923,455.000000 
	C451.312134,455.000000 362.623932,455.000000 273.671875,454.731018 
	C323.922729,423.761566 370.179382,387.807617 409.830994,343.731354 
	C461.941162,285.806335 498.362701,219.656799 514.427429,142.982269 
	C520.728394,112.908699 523.668396,82.534340 521.242432,51.740070 
	C520.894043,47.318108 518.725891,46.267517 515.432007,45.166698 
	C450.733917,23.544220 384.702209,8.216097 316.548462,2.812857 
	C311.681641,2.427016 306.848694,1.614254 302.000000,0.999999 
z"/>
<path fill="#FCC742" opacity="1.000000" stroke="none" 
	d="
M301.531342,0.999999 
	C306.848694,1.614254 311.681641,2.427016 316.548462,2.812857 
	C384.702209,8.216097 450.733917,23.544220 515.432007,45.166698 
	C518.725891,46.267517 520.894043,47.318108 521.242432,51.740070 
	C523.668396,82.534340 520.728394,112.908699 514.427429,142.982269 
	C498.362701,219.656799 461.941162,285.806335 409.830994,343.731354 
	C370.179382,387.807617 323.922729,423.761566 273.204041,454.731018 
	C273.000000,455.000000 272.500000,455.000000 272.283112,454.532227 
	C272.125946,438.927216 272.185638,423.789978 272.506592,408.479797 
	C286.857117,398.872009 301.373932,390.011932 314.963196,379.904785 
	C380.810181,330.930237 430.596466,269.326569 460.424103,192.389969 
	C474.622711,155.766510 483.457031,117.923203 485.051575,78.522072 
	C485.222229,74.305435 483.954712,72.526443 479.826538,71.355667 
	C411.875397,52.084297 343.134827,37.566181 272.124084,35.646271 
	C272.055054,23.781229 272.027527,12.390615 272.000000,1.000000 
	C281.687561,1.000000 291.375122,1.000000 301.531342,0.999999 
z"/>
<path fill="#FCE4A4" opacity="1.000000" stroke="none" 
	d="
M271.531342,1.000000 
	C272.027527,12.390615 272.055054,23.781229 272.045074,35.816803 
	C272.007599,36.461761 271.863556,36.807652 271.406738,36.758007 
	C249.215714,38.186779 227.368713,38.731091 205.770966,41.339256 
	C161.637070,46.668919 118.349571,56.521488 75.556541,68.491699 
	C70.225723,69.982857 62.778805,70.799835 60.505417,74.503181 
	C57.938313,78.684982 59.741619,85.810051 60.279388,91.596085 
	C64.414841,136.090805 76.393288,178.455429 95.478981,218.810852 
	C125.795692,282.913544 170.367096,335.350861 226.871140,377.740601 
	C241.333069,388.590027 256.910461,397.952606 272.059540,408.155029 
	C272.143707,408.311737 272.245361,408.652740 272.245361,408.652740 
	C272.185638,423.789978 272.125946,438.927216 272.033112,454.532227 
	C272.000000,455.000000 271.500000,455.000000 271.250000,455.000000 
	C264.261200,450.499878 257.557343,445.946381 250.777481,441.508972 
	C224.034210,424.005554 198.540558,404.911316 174.781860,383.461639 
	C132.316422,345.123291 96.332100,301.738068 69.401138,251.038315 
	C49.761337,214.064789 36.066589,175.057983 28.213793,133.975876 
	C23.101229,107.229370 22.241743,80.200333 23.016884,53.064335 
	C23.137865,48.829090 24.959661,46.445145 29.011612,45.117569 
	C66.582588,32.807930 104.541489,21.926750 143.496597,14.954168 
	C165.826294,10.957372 188.249924,7.421946 210.713425,4.262998 
	C221.857162,2.695900 233.186340,2.447491 244.715820,1.301246 
	C253.687561,1.000000 262.375122,1.000000 271.531342,1.000000 
z"/>
<path fill="#115A4F" opacity="1.000000" stroke="none" 
	d="
M272.506592,408.479797 
	C272.245361,408.652740 272.143707,408.311737 272.078674,407.687317 
	C272.017426,351.785278 272.029419,296.507690 271.987640,241.230148 
	C271.986328,239.489929 271.430603,237.750122 271.147095,235.668442 
	C271.485626,234.626846 271.810333,233.926941 272.455170,232.537094 
	C283.057800,259.581970 293.373962,285.896088 303.786865,312.456909 
	C304.903564,311.691040 305.471008,311.358337 305.975189,310.947937 
	C333.697662,288.381805 359.710541,264.053925 382.204376,236.175873 
	C404.008484,209.152679 422.030792,180.009506 431.347382,146.155136 
	C434.970154,132.990829 437.202881,119.626266 436.919983,105.769287 
	C407.782898,105.769287 379.052521,105.769287 349.699280,105.769287 
	C350.999146,107.368156 351.874023,108.516983 352.823334,109.600616 
	C360.948212,118.875061 368.922882,128.289780 377.313904,137.317352 
	C380.068756,140.281235 380.245300,142.745758 378.817749,146.172852 
	C365.882660,177.225784 343.275146,199.982559 316.338287,219.729630 
	C313.955444,214.476105 311.724243,209.665359 309.584991,204.814072 
	C306.641174,198.138260 301.501312,191.432327 301.499725,184.738266 
	C301.498169,178.036087 306.652252,171.329666 309.559723,164.630844 
	C311.703979,159.690536 313.869446,154.759445 316.360229,149.057953 
	C300.929077,149.057953 286.453064,149.057953 271.993958,148.585907 
	C271.961761,111.011803 271.912659,73.909729 271.863556,36.807652 
	C271.863556,36.807652 272.007599,36.461761 272.086609,36.291229 
	C343.134827,37.566181 411.875397,52.084297 479.826538,71.355667 
	C483.954712,72.526443 485.222229,74.305435 485.051575,78.522072 
	C483.457031,117.923203 474.622711,155.766510 460.424103,192.389969 
	C430.596466,269.326569 380.810181,330.930237 314.963196,379.904785 
	C301.373932,390.011932 286.857117,398.872009 272.506592,408.479797 
z"/>
<path fill="#4C8176" opacity="1.000000" stroke="none" 
	d="
M271.406738,36.758007 
	C271.912659,73.909729 271.961761,111.011803 271.537354,148.695312 
	C257.029785,149.276764 242.995758,149.276764 228.175964,149.276764 
	C230.409805,154.348526 232.161972,158.274918 233.871765,162.219681 
	C237.170197,169.829773 243.048798,177.467834 242.997498,185.061462 
	C242.946091,192.671494 236.988007,200.251358 233.575333,207.824875 
	C231.842560,211.670303 230.014221,215.472672 227.761749,220.295044 
	C218.269714,212.018326 209.168716,204.726486 200.816681,196.659225 
	C185.718811,182.076096 173.375717,165.465378 165.555313,145.738754 
	C164.191605,142.298859 164.658051,140.021347 167.146881,137.346909 
	C173.610764,130.400970 179.781174,123.181358 186.046494,116.051437 
	C188.844894,112.866882 191.590042,109.635536 194.941284,105.750885 
	C165.219406,105.750885 136.533554,105.750885 107.218666,105.750885 
	C107.660355,111.720230 107.843536,117.348183 108.527588,122.914589 
	C112.192070,152.733780 123.785660,179.594254 139.699417,204.728928 
	C166.216843,246.611435 201.244186,280.605469 239.433472,311.621948 
	C239.738495,311.869690 240.278885,311.827698 240.913162,311.965118 
	C245.624283,299.944824 250.240234,288.018646 254.970428,276.137970 
	C260.304443,262.740692 265.741241,249.384308 271.133362,236.010132 
	C271.430603,237.750122 271.986328,239.489929 271.987640,241.230148 
	C272.029419,296.507690 272.017426,351.785278 271.994507,407.530579 
	C256.910461,397.952606 241.333069,388.590027 226.871140,377.740601 
	C170.367096,335.350861 125.795692,282.913544 95.478981,218.810852 
	C76.393288,178.455429 64.414841,136.090805 60.279388,91.596085 
	C59.741619,85.810051 57.938313,78.684982 60.505417,74.503181 
	C62.778805,70.799835 70.225723,69.982857 75.556541,68.491699 
	C118.349571,56.521488 161.637070,46.668919 205.770966,41.339256 
	C227.368713,38.731091 249.215714,38.186779 271.406738,36.758007 
z"/>
<path fill="#FEFEFE" opacity="1.000000" stroke="none" 
	d="
M271.147125,235.668442 
	C265.741241,249.384308 260.304443,262.740692 254.970428,276.137970 
	C250.240234,288.018646 245.624283,299.944824 240.913162,311.965118 
	C240.278885,311.827698 239.738495,311.869690 239.433472,311.621948 
	C201.244186,280.605469 166.216843,246.611435 139.699417,204.728928 
	C123.785660,179.594254 112.192070,152.733780 108.527588,122.914589 
	C107.843536,117.348183 107.660355,111.720230 107.218666,105.750885 
	C136.533554,105.750885 165.219406,105.750885 194.941284,105.750885 
	C191.590042,109.635536 188.844894,112.866882 186.046494,116.051437 
	C179.781174,123.181358 173.610764,130.400970 167.146881,137.346909 
	C164.658051,140.021347 164.191605,142.298859 165.555313,145.738754 
	C173.375717,165.465378 185.718811,182.076096 200.816681,196.659225 
	C209.168716,204.726486 218.269714,212.018326 227.761749,220.295044 
	C230.014221,215.472672 231.842560,211.670303 233.575333,207.824875 
	C236.988007,200.251358 242.946091,192.671494 242.997498,185.061462 
	C243.048798,177.467834 237.170197,169.829773 233.871765,162.219681 
	C232.161972,158.274918 230.409805,154.348526 228.175964,149.276764 
	C242.995758,149.276764 257.029785,149.276764 271.520447,149.167358 
	C286.453064,149.057953 300.929077,149.057953 316.360229,149.057953 
	C313.869446,154.759445 311.703979,159.690536 309.559723,164.630844 
	C306.652252,171.329666 301.498169,178.036087 301.499725,184.738266 
	C301.501312,191.432327 306.641174,198.138260 309.584991,204.814072 
	C311.724243,209.665359 313.955444,214.476105 316.338287,219.729630 
	C343.275146,199.982559 365.882660,177.225784 378.817749,146.172852 
	C380.245300,142.745758 380.068756,140.281235 377.313904,137.317352 
	C368.922882,128.289780 360.948212,118.875061 352.823334,109.600616 
	C351.874023,108.516983 350.999146,107.368156 349.699280,105.769287 
	C379.052521,105.769287 407.782898,105.769287 436.919983,105.769287 
	C437.202881,119.626266 434.970154,132.990829 431.347382,146.155136 
	C422.030792,180.009506 404.008484,209.152679 382.204376,236.175873 
	C359.710541,264.053925 333.697662,288.381805 305.975189,310.947937 
	C305.471008,311.358337 304.903564,311.691040 303.786865,312.456909 
	C293.373962,285.896088 283.057800,259.581970 272.455170,232.537094 
	C271.810333,233.926941 271.485626,234.626846 271.147125,235.668442 
z"/>
</svg>