<svg version="1.1" id="Layer_1" xmlns="http://www.w3.org/2000/svg" xmlns:xlink="http://www.w3.org/1999/xlink" x="0px" y="0px"
	 width="100%" viewBox="0 0 539 454" enable-background="new 0 0 539 454" xml:space="preserve">
<path fill="#000000" opacity="1.000000" stroke="none" 
	d="
M268.000000,455.000000 
	C179.041061,455.000000 90.082115,455.000000 1.061589,455.000000 
	C1.061589,303.777557 1.061589,152.555099 1.061589,1.000000 
	C75.354439,1.000000 149.709366,1.000000 224.861893,1.357879 
	C224.980743,2.134583 224.334549,2.848710 223.618347,2.927658 
	C213.865173,4.002771 204.080917,4.819674 194.347198,6.041721 
	C182.077194,7.582194 169.719345,8.814625 157.626602,11.289970 
	C135.807129,15.756348 113.999573,20.455122 92.478371,26.156549 
	C70.096191,32.086075 48.051445,39.292923 25.892000,46.048985 
	C24.772030,46.390446 23.293877,47.643661 23.128443,48.659058 
	C22.497381,52.532410 21.939009,56.495644 22.070211,60.401222 
	C22.557863,74.917587 22.689545,89.490273 24.173079,103.916534 
	C25.698454,118.749680 28.284454,133.504837 31.049011,148.172989 
	C36.781849,178.590240 47.394039,207.449356 60.832256,235.213623 
	C67.505402,249.000824 75.265305,262.285370 82.960762,275.549438 
	C98.130974,301.697235 116.700829,325.422485 137.224243,347.464478 
	C158.372299,370.177368 180.632629,391.897095 205.835770,410.193817 
	C224.684372,423.877350 244.120605,436.750183 263.226776,450.082062 
	C265.066162,451.365570 266.420502,453.344116 268.000000,455.000000 
z"/>
<path fill="#000000" opacity="1.000000" stroke="none" 
	d="
M309.000000,0.999997 
	C385.964630,1.000000 462.929291,1.000000 539.946960,1.000000 
	C539.946960,152.228439 539.946960,303.456909 539.946960,455.000000 
	C452.312164,455.000000 364.623932,455.000000 276.159790,454.721008 
	C286.702301,446.953949 298.424805,440.003265 309.252563,431.862488 
	C329.824890,416.395325 350.442169,400.897217 369.972717,384.165283 
	C384.261200,371.924225 396.932220,357.778229 410.137421,344.298340 
	C415.186920,339.143829 420.177246,333.813690 424.397400,327.986359 
	C437.328094,310.131226 450.298950,292.278564 462.461243,273.900177 
	C478.496429,249.669479 490.349060,223.286026 500.044922,195.939728 
	C507.668335,174.438538 514.113281,152.600540 517.008362,129.900421 
	C518.930908,114.825737 520.942566,99.721375 521.819153,84.566948 
	C522.558960,71.777817 521.722046,58.897491 521.587708,46.495659 
	C508.712219,42.399239 497.154480,38.233528 485.329559,35.064785 
	C462.894958,29.052950 440.406128,23.173985 417.752899,18.069132 
	C398.648865,13.764085 379.372894,9.994951 359.999756,7.181992 
	C344.118774,4.876095 327.979858,4.359183 311.966461,2.924260 
	C310.928497,2.831249 309.986603,1.666303 309.000000,0.999997 
z"/>
<path fill="#FCE3A3" opacity="1.000000" stroke="none" 
	d="
M268.399994,455.000000 
	C266.420502,453.344116 265.066162,451.365570 263.226776,450.082062 
	C244.120605,436.750183 224.684372,423.877350 205.835770,410.193817 
	C180.632629,391.897095 158.372299,370.177368 137.224243,347.464478 
	C116.700829,325.422485 98.130974,301.697235 82.960762,275.549438 
	C75.265305,262.285370 67.505402,249.000824 60.832256,235.213623 
	C47.394039,207.449356 36.781849,178.590240 31.049011,148.172989 
	C28.284454,133.504837 25.698454,118.749680 24.173079,103.916534 
	C22.689545,89.490273 22.557863,74.917587 22.070211,60.401222 
	C21.939009,56.495644 22.497381,52.532410 23.128443,48.659058 
	C23.293877,47.643661 24.772030,46.390446 25.892000,46.048985 
	C48.051445,39.292923 70.096191,32.086075 92.478371,26.156549 
	C113.999573,20.455122 135.807129,15.756348 157.626602,11.289970 
	C169.719345,8.814625 182.077194,7.582194 194.347198,6.041721 
	C204.080917,4.819674 213.865173,4.002771 223.618347,2.927658 
	C224.334549,2.848710 224.980743,2.134583 225.329742,1.357879 
	C240.354233,1.000000 255.708450,1.000000 271.548584,1.468410 
	C272.085693,13.330427 272.136932,24.724033 272.105011,36.290981 
	C272.021820,36.464321 271.866638,36.816151 271.410889,36.749611 
	C251.847961,37.851562 232.643356,38.171875 213.652420,40.352798 
	C163.277145,46.137905 113.971733,57.351528 65.264870,71.331703 
	C61.036102,72.545471 59.516148,74.224571 59.683220,78.824127 
	C61.094681,117.681595 69.877205,154.956680 83.722000,191.091965 
	C112.381325,265.893585 160.003403,326.489349 223.293015,374.944427 
	C238.840240,386.847534 255.712402,397.020050 272.064148,408.148438 
	C272.152832,408.308655 272.256836,408.659851 272.197754,409.146484 
	C272.092468,424.755402 272.046234,439.877686 272.000000,455.000000 
	C270.933319,455.000000 269.866669,455.000000 268.399994,455.000000 
z"/>
<path fill="#FCC742" opacity="1.000000" stroke="none" 
	d="
M272.188171,36.117641 
	C272.136932,24.724033 272.085693,13.330427 272.017212,1.468410 
	C284.020905,1.000000 296.041779,1.000000 308.531342,0.999997 
	C309.986603,1.666303 310.928497,2.831249 311.966461,2.924260 
	C327.979858,4.359183 344.118774,4.876095 359.999756,7.181992 
	C379.372894,9.994951 398.648865,13.764085 417.752899,18.069132 
	C440.406128,23.173985 462.894958,29.052950 485.329559,35.064785 
	C497.154480,38.233528 508.712219,42.399239 521.587708,46.495659 
	C521.722046,58.897491 522.558960,71.777817 521.819153,84.566948 
	C520.942566,99.721375 518.930908,114.825737 517.008362,129.900421 
	C514.113281,152.600540 507.668335,174.438538 500.044922,195.939728 
	C490.349060,223.286026 478.496429,249.669479 462.461243,273.900177 
	C450.298950,292.278564 437.328094,310.131226 424.397400,327.986359 
	C420.177246,333.813690 415.186920,339.143829 410.137421,344.298340 
	C396.932220,357.778229 384.261200,371.924225 369.972717,384.165283 
	C350.442169,400.897217 329.824890,416.395325 309.252563,431.862488 
	C298.424805,440.003265 286.702301,446.953949 275.691925,454.721008 
	C274.933319,455.000000 273.866669,455.000000 272.399994,455.000000 
	C272.046234,439.877686 272.092468,424.755402 272.453186,408.964630 
	C292.899445,394.135193 313.896698,381.045593 333.000336,365.612061 
	C389.904022,319.640533 432.719391,262.852264 459.603882,194.538864 
	C474.184235,157.490234 483.260498,119.164551 485.061646,79.234741 
	C485.281250,74.366318 483.743378,72.401825 479.077393,71.089722 
	C411.354004,52.045559 342.881042,37.550453 272.188171,36.117641 
z"/>
<path fill="#105A4E" opacity="1.000000" stroke="none" 
	d="
M272.104980,36.290981 
	C342.881042,37.550453 411.354004,52.045559 479.077393,71.089722 
	C483.743378,72.401825 485.281250,74.366318 485.061646,79.234741 
	C483.260498,119.164551 474.184235,157.490234 459.603882,194.538864 
	C432.719391,262.852264 389.904022,319.640533 333.000336,365.612061 
	C313.896698,381.045593 292.899445,394.135193 272.512268,408.478027 
	C272.256836,408.659851 272.152832,408.308655 272.087402,407.681641 
	C272.027557,352.176331 272.046356,297.297974 271.980469,242.419769 
	C271.978302,240.602463 271.117096,238.786194 270.758850,236.618408 
	C271.298645,235.233704 271.735809,234.200043 272.445312,232.522507 
	C283.023987,259.506897 293.345276,285.834717 303.789459,312.476074 
	C304.998230,311.621338 305.688965,311.191956 306.314270,310.682281 
	C332.069275,289.689087 356.344086,267.150238 377.712463,241.635468 
	C400.871429,213.982635 420.196075,184.083603 430.538239,149.116776 
	C434.697662,135.053650 437.190582,120.702293 436.945160,105.766693 
	C407.837891,105.766693 379.103516,105.766693 349.720367,105.766693 
	C351.004974,107.361160 351.862610,108.506798 352.802856,109.580116 
	C360.927185,118.854141 368.906067,128.264069 377.292816,137.294952 
	C380.032013,140.244507 380.262909,142.698059 378.828400,146.142868 
	C365.895447,177.199600 343.291199,199.963516 316.333557,219.728973 
	C313.959869,214.486298 311.737610,209.678497 309.600311,204.833237 
	C306.655548,198.157410 301.509155,191.455124 301.503754,184.760757 
	C301.498352,178.059067 306.648041,171.349548 309.554016,164.650360 
	C311.696747,159.710754 313.865082,154.782242 316.370087,149.052597 
	C300.925507,149.052597 286.452972,149.052597 271.999695,148.580963 
	C271.968201,111.011589 271.917419,73.913872 271.866638,36.816151 
	C271.866638,36.816151 272.021820,36.464321 272.104980,36.290981 
z"/>
<path fill="#4B8075" opacity="1.000000" stroke="none" 
	d="
M271.410919,36.749611 
	C271.917419,73.913872 271.968201,111.011589 271.544861,148.699677 
	C257.034058,149.290039 242.997391,149.290039 228.138535,149.290039 
	C233.228912,160.768036 237.836761,171.067795 242.338593,181.413681 
	C242.958572,182.838501 243.785736,184.808151 243.276062,185.990753 
	C238.492386,197.090134 233.438400,208.073044 227.942337,220.241302 
	C219.047287,212.623566 210.449677,205.852341 202.536530,198.358337 
	C186.920212,183.569183 174.117905,166.690369 165.865891,146.588974 
	C164.277939,142.720825 164.564682,140.072540 167.509323,136.902191 
	C175.894104,127.874718 183.900879,118.495728 192.031204,109.232948 
	C192.909409,108.232414 193.622482,107.086937 194.498169,105.891266 
	C165.139175,105.891266 136.425751,105.891266 106.989166,105.891266 
	C107.843445,114.149834 108.248932,121.966400 109.516953,129.640457 
	C114.493103,159.756195 127.358849,186.625809 144.220139,211.725067 
	C169.640823,249.565628 201.942429,280.930084 236.980270,309.683014 
	C238.076767,310.582825 239.267532,311.367706 240.727234,312.434937 
	C243.938400,304.246887 246.940353,296.507568 250.005615,288.793396 
	C256.872437,271.512115 263.770782,254.243332 270.656281,236.969452 
	C271.117096,238.786194 271.978302,240.602463 271.980469,242.419769 
	C272.046356,297.297974 272.027557,352.176331 271.998718,407.521423 
	C255.712402,397.020050 238.840240,386.847534 223.293015,374.944427 
	C160.003403,326.489349 112.381325,265.893585 83.722000,191.091965 
	C69.877205,154.956680 61.094681,117.681595 59.683220,78.824127 
	C59.516148,74.224571 61.036102,72.545471 65.264870,71.331703 
	C113.971733,57.351528 163.277145,46.137905 213.652420,40.352798 
	C232.643356,38.171875 251.847961,37.851562 271.410919,36.749611 
z"/>
<path fill="#FDFEFE" opacity="1.000000" stroke="none" 
	d="
M270.758850,236.618408 
	C263.770782,254.243332 256.872437,271.512115 250.005615,288.793396 
	C246.940353,296.507568 243.938400,304.246887 240.727234,312.434937 
	C239.267532,311.367706 238.076767,310.582825 236.980270,309.683014 
	C201.942429,280.930084 169.640823,249.565628 144.220139,211.725067 
	C127.358849,186.625809 114.493103,159.756195 109.516953,129.640457 
	C108.248932,121.966400 107.843445,114.149834 106.989166,105.891266 
	C136.425751,105.891266 165.139175,105.891266 194.498169,105.891266 
	C193.622482,107.086937 192.909409,108.232414 192.031204,109.232948 
	C183.900879,118.495728 175.894104,127.874718 167.509323,136.902191 
	C164.564682,140.072540 164.277939,142.720825 165.865891,146.588974 
	C174.117905,166.690369 186.920212,183.569183 202.536530,198.358337 
	C210.449677,205.852341 219.047287,212.623566 227.942337,220.241302 
	C233.438400,208.073044 238.492386,197.090134 243.276062,185.990753 
	C243.785736,184.808151 242.958572,182.838501 242.338593,181.413681 
	C237.836761,171.067795 233.228912,160.768036 228.138535,149.290039 
	C242.997391,149.290039 257.034058,149.290039 271.525574,149.171326 
	C286.452972,149.052597 300.925507,149.052597 316.370087,149.052597 
	C313.865082,154.782242 311.696747,159.710754 309.554016,164.650360 
	C306.648041,171.349548 301.498352,178.059067 301.503754,184.760757 
	C301.509155,191.455124 306.655548,198.157410 309.600311,204.833237 
	C311.737610,209.678497 313.959869,214.486298 316.333557,219.728973 
	C343.291199,199.963516 365.895447,177.199600 378.828400,146.142868 
	C380.262909,142.698059 380.032013,140.244507 377.292816,137.294952 
	C368.906067,128.264069 360.927185,118.854141 352.802856,109.580116 
	C351.862610,108.506798 351.004974,107.361160 349.720367,105.766693 
	C379.103516,105.766693 407.837891,105.766693 436.945160,105.766693 
	C437.190582,120.702293 434.697662,135.053650 430.538239,149.116776 
	C420.196075,184.083603 400.871429,213.982635 377.712463,241.635468 
	C356.344086,267.150238 332.069275,289.689087 306.314270,310.682281 
	C305.688965,311.191956 304.998230,311.621338 303.789459,312.476074 
	C293.345276,285.834717 283.023987,259.506897 272.445312,232.522507 
	C271.735809,234.200043 271.298645,235.233704 270.758850,236.618408 
z"/>
</svg>